# Blender 4.1.1
# www.blender.org
mtllib tablet-obj.mtl
o tablet
v 2.372348 1.111476 -0.199800
v 1.561427 0.300555 -0.199800
v 1.561427 9.421821 -0.199800
v 2.372348 8.610901 -0.199800
v 1.672826 9.690761 0.867838
v 2.641287 8.722300 0.867838
v 2.641287 1.000077 0.867838
v 1.672826 0.031616 0.867838
v 1.379066 8.912546 0.998500
v 1.935749 8.425495 0.998500
v 1.935749 1.854179 0.998500
v 1.512661 0.418287 1.015073
v 1.552695 0.321637 1.066080
v 2.351266 1.120208 1.066080
v 2.254616 1.160242 1.015073
v 2.254616 8.562135 1.015073
v 2.351266 8.602169 1.066080
v 1.361184 9.326832 1.069425
v 1.512722 9.348690 1.015073
v 1.100397 9.007863 1.008209
v 0.950447 8.954388 1.007132
v 1.029681 8.970050 1.007448
v 0.970231 9.030483 1.082836
v 1.080569 9.072248 1.080946
v 1.029416 9.042805 1.082279
v 1.512661 9.345348 0.998500
v 2.254616 8.562135 0.998500
v 2.129938 1.108598 0.998500
v 1.491270 0.469930 0.998500
v 1.552695 9.400740 1.066080
v 1.056096 8.972863 1.085444
v 0.977858 8.956575 1.086181
v 1.124409 9.012184 1.083664
v 2.694977 8.744539 0.000000
v 1.695067 9.744456 0.000000
v 1.695067 9.744456 0.867838
v 2.694977 8.744539 0.867838
v 2.694977 0.977838 0.867838
v 1.695067 -0.022080 0.867838
v 1.695067 -0.022080 -0.000000
v 2.694977 0.977838 -0.000000
v 2.690377 8.858019 0.077064
v 2.771967 8.661044 0.077064
v 2.695011 8.744554 0.000034
v 2.731172 8.801764 0.077064
v 2.761036 8.729667 0.077064
v 1.611572 9.822160 0.077065
v 1.808545 9.739851 0.077065
v 1.695081 9.744491 0.000034
v 1.680194 9.810870 0.077065
v 1.752292 9.780744 0.077065
v 1.808545 9.739851 0.790774
v 1.611572 9.822160 0.790774
v 1.695081 9.744491 0.867804
v 1.752292 9.780744 0.790774
v 1.680194 9.810870 0.790774
v 2.771967 8.661044 0.790774
v 2.690377 8.858019 0.790774
v 2.695011 8.744554 0.867804
v 2.761036 8.729667 0.790774
v 2.731172 8.801764 0.790774
v 2.690377 0.864358 0.790773
v 2.771967 1.061333 0.790773
v 2.695011 0.977824 0.867804
v 2.731172 0.920612 0.790773
v 2.761036 0.992710 0.790773
v 1.611572 -0.099784 0.790773
v 1.808545 -0.017474 0.790773
v 1.695081 -0.022114 0.867804
v 1.680194 -0.088493 0.790773
v 1.752292 -0.058366 0.790773
v 1.808545 -0.017474 0.077064
v 1.611572 -0.099784 0.077064
v 1.695081 -0.022114 0.000034
v 1.752292 -0.058366 0.077064
v 1.680194 -0.088493 0.077064
v 2.771967 1.061333 0.077064
v 2.690377 0.864358 0.077064
v 2.695011 0.977824 0.000034
v 2.761036 0.992710 0.077064
v 2.731172 0.920612 0.077064
v 1.888712 0.062692 0.790773
v 2.049045 0.223025 0.790773
v 2.209378 0.383358 0.790773
v 2.369711 0.543692 0.790773
v 2.530044 0.704025 0.790773
v 1.888712 0.062692 0.077064
v 2.049045 0.223025 0.077064
v 2.209378 0.383359 0.077064
v 2.369711 0.543692 0.077064
v 2.530044 0.704025 0.077064
v 1.942338 0.060708 0.790773
v 2.051029 0.169399 0.790773
v 1.998212 0.073741 0.790773
v 2.037996 0.113525 0.790773
v 2.263004 0.381374 0.790773
v 2.371695 0.490065 0.790773
v 2.318879 0.394407 0.790773
v 2.358663 0.434191 0.790773
v 2.583671 0.702040 0.790773
v 2.692362 0.810732 0.790773
v 2.639545 0.715073 0.790773
v 2.679329 0.754857 0.790773
v 2.051029 0.169399 0.077064
v 1.942338 0.060708 0.077064
v 2.037996 0.113525 0.077064
v 1.998212 0.073741 0.077064
v 2.371695 0.490066 0.077064
v 2.263004 0.381374 0.077064
v 2.358663 0.434191 0.077064
v 2.318879 0.394407 0.077064
v 2.692362 0.810732 0.077064
v 2.583671 0.702041 0.077064
v 2.679329 0.754857 0.077064
v 2.639545 0.715074 0.077064
v 1.968878 9.579517 0.077065
v 2.129211 9.419184 0.077065
v 2.289545 9.258850 0.077065
v 2.449878 9.098518 0.077065
v 2.610211 8.938185 0.077064
v 1.968878 9.579517 0.790774
v 2.129211 9.419184 0.790774
v 2.289544 9.258850 0.790774
v 2.449878 9.098518 0.790774
v 2.610211 8.938185 0.790774
v 1.854756 9.746336 0.077065
v 1.975363 9.625729 0.077065
v 1.922266 9.737384 0.077065
v 1.966412 9.693239 0.077065
v 2.175422 9.425669 0.077065
v 2.296030 9.305061 0.077065
v 2.242933 9.416717 0.077065
v 2.287078 9.372572 0.077065
v 2.496089 9.105003 0.077065
v 2.616696 8.984396 0.077065
v 2.563599 9.096051 0.077065
v 2.607744 9.051907 0.077065
v 1.975363 9.625729 0.790774
v 1.854756 9.746336 0.790774
v 1.966411 9.693239 0.790774
v 1.922266 9.737384 0.790774
v 2.296030 9.305061 0.790774
v 2.175422 9.425669 0.790774
v 2.287078 9.372572 0.790774
v 2.242932 9.416717 0.790774
v 2.616696 8.984396 0.790774
v 2.496089 9.105003 0.790774
v 2.607744 9.051907 0.790774
v 2.563599 9.096051 0.790774
v -2.372348 1.111476 -0.199800
v -1.561427 0.300555 -0.199800
v -1.561427 9.421821 -0.199800
v -2.372348 8.610901 -0.199800
v -1.672826 9.690761 0.867838
v -2.641287 8.722300 0.867838
v -2.641287 1.000077 0.867838
v -1.672826 0.031616 0.867838
v -1.379066 8.912546 0.998500
v -1.935749 8.425495 0.998500
v -1.933069 1.854179 0.998500
v -1.512661 0.418287 1.015073
v -1.552695 0.321637 1.066080
v -2.351266 1.120208 1.066080
v -2.254616 1.160242 1.015073
v -2.254616 8.562135 1.015073
v -2.351266 8.602169 1.066080
v -1.361184 9.326832 1.069425
v -1.512722 9.348690 1.015073
v -1.100397 9.007863 1.008209
v -0.950447 8.954388 1.007132
v -1.029681 8.970050 1.007448
v -0.970231 9.030483 1.082836
v -1.080569 9.072248 1.080946
v -1.029416 9.042805 1.082279
v -1.512661 9.345348 0.998500
v -2.254616 8.562135 0.998500
v -2.129938 1.108598 0.998500
v -1.491270 0.469930 0.998500
v 1.427580 1.108598 1.062990
v -1.552695 9.400740 1.066080
v -1.056096 8.972863 1.085444
v -0.977858 8.956575 1.086181
v -1.124409 9.012184 1.083664
v -2.694977 8.744539 0.000000
v -1.695067 9.744456 0.000000
v -1.695067 9.744456 0.867838
v -2.694977 8.744539 0.867838
v -2.694977 0.977838 0.867838
v -1.695067 -0.022080 0.867838
v -1.695067 -0.022080 -0.000000
v -2.694977 0.977838 -0.000000
v -2.690377 8.858019 0.077064
v -2.771967 8.661044 0.077064
v -2.695011 8.744554 0.000034
v -2.731172 8.801764 0.077064
v -2.761036 8.729667 0.077064
v -1.611572 9.822160 0.077065
v -1.808545 9.739851 0.077065
v -1.695081 9.744491 0.000034
v -1.680194 9.810870 0.077065
v -1.752292 9.780744 0.077065
v -1.808545 9.739851 0.790774
v -1.611572 9.822160 0.790774
v -1.695081 9.744491 0.867804
v -1.752292 9.780744 0.790774
v -1.680194 9.810870 0.790774
v -2.771967 8.661044 0.790774
v -2.690377 8.858019 0.790774
v -2.695011 8.744554 0.867804
v -2.761036 8.729667 0.790774
v -2.731172 8.801764 0.790774
v -2.690377 0.864358 0.790773
v -2.771967 1.061333 0.790773
v -2.695011 0.977824 0.867804
v -2.731172 0.920612 0.790773
v -2.761036 0.992710 0.790773
v -1.611572 -0.099784 0.790773
v -1.808545 -0.017474 0.790773
v -1.695081 -0.022114 0.867804
v -1.680194 -0.088493 0.790773
v -1.752292 -0.058366 0.790773
v -1.808545 -0.017474 0.077064
v -1.611572 -0.099784 0.077064
v -1.695081 -0.022114 0.000034
v -1.752292 -0.058366 0.077064
v -1.680194 -0.088493 0.077064
v -2.771967 1.061333 0.077064
v -2.690377 0.864358 0.077064
v -2.695011 0.977824 0.000034
v -2.761036 0.992710 0.077064
v -2.731172 0.920612 0.077064
v -1.888712 0.062692 0.790773
v -2.049045 0.223025 0.790773
v -2.209378 0.383358 0.790773
v -2.369711 0.543692 0.790773
v -2.530044 0.704025 0.790773
v -1.888712 0.062692 0.077064
v -2.049045 0.223025 0.077064
v -2.209378 0.383359 0.077064
v -2.369711 0.543692 0.077064
v -2.530044 0.704025 0.077064
v -1.942338 0.060708 0.790773
v -2.051029 0.169399 0.790773
v -1.998212 0.073741 0.790773
v -2.037996 0.113525 0.790773
v -2.263004 0.381374 0.790773
v -2.371695 0.490065 0.790773
v -2.318879 0.394407 0.790773
v -2.358663 0.434191 0.790773
v -2.583671 0.702040 0.790773
v -2.692362 0.810732 0.790773
v -2.639545 0.715073 0.790773
v -2.679329 0.754857 0.790773
v -2.051029 0.169399 0.077064
v -1.942338 0.060708 0.077064
v -2.037996 0.113525 0.077064
v -1.998212 0.073741 0.077064
v -2.371695 0.490066 0.077064
v -2.263004 0.381374 0.077064
v -2.358663 0.434191 0.077064
v -2.318879 0.394407 0.077064
v -2.692362 0.810732 0.077064
v -2.583671 0.702041 0.077064
v -2.679329 0.754857 0.077064
v -2.639545 0.715074 0.077064
v -1.968878 9.579517 0.077065
v -2.129211 9.419184 0.077065
v -2.289545 9.258850 0.077065
v -2.449878 9.098518 0.077065
v -2.610211 8.938185 0.077064
v -1.968878 9.579517 0.790774
v -2.129211 9.419184 0.790774
v -2.289544 9.258850 0.790774
v -2.449878 9.098518 0.790774
v -2.610211 8.938185 0.790774
v -1.854756 9.746336 0.077065
v -1.975363 9.625729 0.077065
v -1.922266 9.737384 0.077065
v -1.966412 9.693239 0.077065
v -2.175422 9.425669 0.077065
v -2.296030 9.305061 0.077065
v -2.242933 9.416717 0.077065
v -2.287078 9.372572 0.077065
v -2.496089 9.105003 0.077065
v -2.616696 8.984396 0.077065
v -2.563599 9.096051 0.077065
v -2.607744 9.051907 0.077065
v -1.975363 9.625729 0.790774
v -1.854756 9.746336 0.790774
v -1.966411 9.693239 0.790774
v -1.922266 9.737384 0.790774
v -2.296030 9.305061 0.790774
v -2.175422 9.425669 0.790774
v -2.287078 9.372572 0.790774
v -2.242932 9.416717 0.790774
v -2.616696 8.984396 0.790774
v -2.496089 9.105003 0.790774
v -2.607744 9.051907 0.790774
v -2.563599 9.096051 0.790774
v 2.254616 1.160242 0.998500
v 1.512661 0.418287 0.998500
v -2.254616 1.160242 0.998500
v -1.512661 0.418287 0.998500
v 1.427580 1.108598 0.998500
v -1.427580 1.108598 0.998500
v 1.491270 0.469930 1.062990
v -1.427580 1.108598 1.062990
v -1.491270 0.469930 1.062990
v 2.129938 1.108598 1.062990
v -2.129938 1.108598 1.062990
v 0.935228 0.031616 0.867838
v 0.845685 0.418287 0.998500
v 0.845685 0.418287 1.015073
v 0.868067 0.321637 1.066080
v 0.947663 -0.026742 0.867838
v 0.833726 0.469930 0.998500
v 0.798119 1.108598 0.998500
v 0.833726 0.469930 1.062990
v 0.798119 1.108598 1.062990
v 0.827002 0.590512 1.062990
v -0.944521 0.031616 0.867838
v -0.854088 0.418287 0.998500
v -0.854088 0.418287 1.015073
v -0.876692 0.321637 1.066080
v -0.957079 -0.026683 0.867838
v -0.842010 0.469930 0.998500
v -0.806049 1.108598 0.998500
v -0.842010 0.469930 1.062990
v -0.806049 1.108598 1.062990
v -0.835219 0.590517 1.062990
v 1.345396 1.224457 1.062990
v -1.345578 1.224457 1.062990
v 0.752131 1.224457 1.062990
v -0.759788 1.224457 1.062990
v 0.798119 1.108598 1.167236
v -0.806049 1.108598 1.167236
v 1.427580 1.108598 1.126854
v 1.375665 1.108598 1.167236
v 0.827002 0.590512 1.127278
v 0.824621 0.633231 1.167236
v -1.376205 1.108598 1.167236
v -1.427580 1.108598 1.127278
v -0.832811 0.633274 1.167236
v -0.835219 0.590517 1.127278
v 0.752131 1.224457 1.127278
v 0.767992 1.184499 1.167236
v 1.321937 1.184499 1.167236
v 1.345396 1.224457 1.126854
v -0.759788 1.224457 1.127278
v -0.775743 1.184499 1.167236
v -1.345578 1.224457 1.127278
v -1.322577 1.184499 1.167236
v 1.361184 9.326832 1.043067
v 1.029416 9.042805 1.055920
v 0.970231 9.030483 1.056478
v 1.080569 9.072248 1.054587
v -1.361184 9.326832 1.043067
v -1.029416 9.042805 1.055920
v -0.970231 9.030483 1.056478
v -1.080569 9.072248 1.054587
v 2.641287 8.722300 0.000000
v 1.672826 9.690761 0.000000
v 1.672826 0.031616 -0.000000
v 2.641287 1.000077 -0.000000
v -2.641287 8.722300 0.000000
v -1.672826 9.690761 0.000000
v -1.672826 0.031616 -0.000000
v -2.641287 1.000077 -0.000000
v -2.771967 4.024265 0.604855
v -2.771967 4.024265 0.265253
v -2.771967 5.206631 0.604855
v -2.771967 5.206631 0.265253
v -2.771967 5.695183 0.560670
v -2.771967 5.695183 0.320096
v -2.771967 6.560519 0.560670
v -2.771967 6.560519 0.320096
v -2.771967 7.488506 0.560670
v -2.771967 7.488506 0.320096
v -2.771967 6.623500 0.320096
v -2.771967 6.623500 0.560670
v -2.867273 5.757943 0.560670
v -2.867273 5.757943 0.320096
v -2.867273 6.562717 0.560670
v -2.867273 6.562717 0.320096
v -2.867273 7.425758 0.560670
v -2.867273 7.425758 0.320096
v -2.867273 6.621291 0.320096
v -2.867273 6.621291 0.560670
v -2.717952 4.063109 0.566010
v -2.717952 4.063109 0.304097
v -2.717952 5.167786 0.566010
v -2.717952 5.167786 0.304097
v -2.717952 4.024265 0.604855
v -2.717952 4.024265 0.265253
v -2.717952 5.206631 0.604855
v -2.717952 5.206631 0.265253
v -2.839748 4.122655 0.566010
v -2.839748 4.122655 0.304097
v -2.839748 5.108240 0.566010
v -2.839748 5.108240 0.304097
v 0.619195 0.691439 1.167236
v -0.626694 0.691338 1.167236
v 0.619195 0.691439 1.120793
v -0.626694 0.691338 1.120793
v -2.771967 3.133982 0.660719
v -2.771967 3.133982 0.208707
vn -0.0000 -0.0000 -1.0000
vn 0.3990 0.3990 0.8256
vn -0.0000 -0.9996 0.0277
vn -0.0000 -0.0000 1.0000
vn -0.0000 -0.7213 0.6926
vn -0.7249 -0.6852 0.0704
vn -0.0000 0.5643 0.8256
vn -0.0000 1.0000 -0.0000
vn 0.3990 -0.3990 0.8256
vn -1.0000 -0.0000 -0.0000
vn 0.6554 -0.7553 0.0051
vn -0.0000 0.0201 -0.9998
vn 0.5643 -0.0000 0.8256
vn -0.3819 -0.3711 0.8464
vn -0.3300 0.3300 0.8844
vn -0.0000 -0.5643 0.8256
vn -0.4667 -0.0000 0.8844
vn -0.7071 0.7071 -0.0000
vn -0.6719 0.7406 -0.0000
vn 0.1986 -0.9794 -0.0369
vn 0.4811 -0.8687 -0.1177
vn -0.0000 0.4667 0.8844
vn 0.7071 -0.7071 -0.0000
vn -0.7071 -0.7071 -0.0000
vn -0.0000 -0.7042 -0.7100
vn -0.0000 0.0452 0.9990
vn -0.0000 0.7042 0.7100
vn -0.0000 0.7042 -0.7100
vn 0.7074 -0.0000 0.7068
vn 0.7071 0.7071 -0.0000
vn 1.0000 -0.0000 -0.0000
vn 0.9993 0.0370 -0.0000
vn 0.6272 0.4548 -0.6322
vn 0.7505 0.3109 -0.5832
vn 0.7651 0.1219 -0.6322
vn 0.1256 0.7634 -0.6336
vn 0.3128 0.7486 -0.5846
vn 0.4553 0.6263 -0.6329
vn 0.4553 0.6263 0.6329
vn 0.3128 0.7486 0.5846
vn 0.1256 0.7634 0.6336
vn 0.7651 0.1219 0.6323
vn 0.7505 0.3109 0.5832
vn 0.6272 0.4548 0.6322
vn 0.6272 -0.4548 0.6323
vn 0.7505 -0.3109 0.5832
vn 0.7651 -0.1219 0.6322
vn 0.1256 -0.7634 0.6336
vn 0.3128 -0.7486 0.5846
vn 0.4553 -0.6263 0.6329
vn 0.4553 -0.6263 -0.6329
vn 0.3128 -0.7486 -0.5846
vn 0.1256 -0.7634 -0.6336
vn 0.7651 -0.1219 -0.6322
vn 0.7505 -0.3109 -0.5832
vn 0.6272 -0.4548 -0.6323
vn 0.5880 0.8089 -0.0000
vn 0.3856 0.9227 -0.0000
vn 0.1623 -0.9867 -0.0000
vn 0.9875 0.1573 -0.0000
vn 0.9239 0.3827 -0.0000
vn 0.8095 0.5871 -0.0000
vn 0.8095 -0.5871 -0.0000
vn 0.9239 -0.3827 -0.0000
vn 0.7074 -0.0000 -0.7068
vn 0.9875 -0.1573 -0.0000
vn 0.4289 -0.4289 0.7951
vn -0.0370 -0.9993 -0.0000
vn 0.4289 -0.4289 -0.7951
vn 0.2272 -0.9739 -0.0000
vn 0.4196 0.4195 -0.8050
vn -0.1390 0.9903 -0.0000
vn 0.4196 0.4195 0.8050
vn 0.9903 -0.1390 -0.0000
vn 0.9913 0.1314 -0.0000
vn 0.1315 0.9913 -0.0000
vn -0.3990 0.3990 0.8256
vn 0.7249 -0.6852 0.0704
vn -0.3990 -0.3990 0.8256
vn -0.6554 -0.7553 0.0051
vn -0.5643 -0.0000 0.8256
vn 0.3819 -0.3711 0.8464
vn 0.3300 0.3300 0.8844
vn 0.4667 -0.0000 0.8844
vn -0.1986 -0.9794 -0.0369
vn -0.4811 -0.8687 -0.1177
vn -0.7074 -0.0000 0.7068
vn -0.9993 0.0370 -0.0000
vn -0.6272 0.4548 -0.6322
vn -0.7505 0.3109 -0.5832
vn -0.7651 0.1219 -0.6322
vn -0.1256 0.7634 -0.6336
vn -0.3128 0.7486 -0.5846
vn -0.4553 0.6263 -0.6329
vn -0.4553 0.6263 0.6329
vn -0.3128 0.7486 0.5846
vn -0.1256 0.7634 0.6336
vn -0.7651 0.1219 0.6323
vn -0.7505 0.3109 0.5832
vn -0.6272 0.4548 0.6322
vn -0.6272 -0.4548 0.6323
vn -0.7505 -0.3109 0.5832
vn -0.7651 -0.1219 0.6322
vn -0.1256 -0.7634 0.6336
vn -0.3128 -0.7486 0.5846
vn -0.4553 -0.6263 0.6329
vn -0.4553 -0.6263 -0.6329
vn -0.3128 -0.7486 -0.5846
vn -0.1256 -0.7634 -0.6336
vn -0.7651 -0.1219 -0.6322
vn -0.7505 -0.3109 -0.5832
vn -0.6272 -0.4548 -0.6323
vn -0.5880 0.8089 -0.0000
vn -0.3856 0.9227 -0.0000
vn -0.1623 -0.9867 -0.0000
vn -0.9875 0.1573 -0.0000
vn -0.9239 0.3827 -0.0000
vn -0.8095 0.5871 -0.0000
vn -0.8095 -0.5871 -0.0000
vn -0.9239 -0.3827 -0.0000
vn -0.7074 -0.0000 -0.7068
vn -0.9875 -0.1573 -0.0000
vn -0.4289 -0.4289 0.7951
vn 0.0370 -0.9993 -0.0000
vn -0.4289 -0.4289 -0.7951
vn -0.2272 -0.9739 -0.0000
vn -0.4196 0.4195 -0.8050
vn 0.1390 0.9903 -0.0000
vn -0.4196 0.4195 0.8050
vn -0.9903 -0.1390 -0.0000
vn -0.9913 0.1314 -0.0000
vn -0.1315 0.9913 -0.0000
vn -0.0000 -1.0000 -0.0000
vn -0.0000 -0.5964 -0.8027
vn -0.0000 -0.6829 0.7305
vn -0.8162 0.5777 -0.0000
vn -0.0000 -0.9803 0.1977
vn -0.8156 -0.5786 -0.0000
vn -0.6583 -0.7527 -0.0000
vn -0.0000 0.7071 0.7071
vn 0.4993 -0.5785 0.6450
vn -0.5027 -0.5747 0.6458
vn 0.0003 0.7090 0.7052
vn 0.5634 0.3993 0.7233
vn -0.5635 0.3985 0.7237
vn 0.6532 -0.7572 -0.0000
vn 0.4989 0.8667 -0.0000
vn 0.6719 0.7406 -0.0000
vn -0.2038 0.9790 -0.0000
vn -0.4989 0.8667 -0.0000
vn 0.2038 0.9790 -0.0000
vn 0.4217 0.4217 -0.8027
vn 0.4217 -0.4217 -0.8027
vn -0.0000 0.5964 -0.8027
vn 0.5964 -0.0000 -0.8027
vn -0.4217 0.4217 -0.8027
vn -0.4217 -0.4217 -0.8027
vn -0.5964 -0.0000 -0.8027
vn -0.9739 -0.2272 -0.0000
vn -0.3856 -0.9227 -0.0000
vn -0.5880 -0.8089 -0.0000
vn -0.1623 0.9867 -0.0000
vn 0.9739 -0.2272 -0.0000
vn 0.3856 -0.9227 -0.0000
vn 0.5880 -0.8089 -0.0000
vn 0.1623 0.9867 -0.0000
vn 0.0232 -0.9997 -0.0000
vn -0.5499 0.8352 -0.0000
vn 0.0231 0.9997 -0.0000
vn -0.5500 -0.8352 -0.0000
vn -0.4392 -0.8984 -0.0000
vn -0.4392 0.8984 -0.0000
vn -0.0000 -0.1106 0.9939
vn -0.9190 0.3942 -0.0000
vn -0.0001 1.0000 -0.0000
vn 0.9187 0.3949 -0.0000
vn -0.9984 -0.0000 -0.0557
vt 0.829957 0.056403
vt 0.781581 0.008026
vt 0.782691 0.005344
vt 0.832639 0.055292
vt 0.781581 0.490519
vt 0.829957 0.442142
vt 0.832639 0.443253
vt 0.782691 0.493201
vt 0.620259 0.522880
vt 0.580368 0.562755
vt 0.565881 0.556480
vt 0.614258 0.508123
vt 0.939951 0.304966
vt 0.939951 0.225951
vt 0.943900 0.227133
vt 0.943900 0.303933
vt 0.563199 0.555370
vt 0.613147 0.505441
vt 0.614459 0.008026
vt 0.613348 0.005344
vt 0.782491 0.993109
vt 0.782491 0.993111
vt 0.778320 0.996882
vt 0.617318 0.996882
vt 0.613146 0.993111
vt 0.613147 0.993109
vt 0.650481 0.993342
vt 0.745627 0.993339
vt 0.986781 0.459917
vt 0.986902 0.406838
vt 0.987729 0.406935
vt 0.987609 0.459918
vt 0.781380 0.508123
vt 0.775379 0.522880
vt 0.983878 0.435483
vt 0.983878 0.463774
vt 0.983050 0.463774
vt 0.983050 0.435483
vt 0.580368 0.936348
vt 0.620259 0.976223
vt 0.614258 0.990428
vt 0.565881 0.942070
vt 0.990517 0.370594
vt 0.990517 0.284396
vt 0.990765 0.284396
vt 0.990765 0.370594
vt 0.931867 0.068941
vt 0.934391 0.065648
vt 0.935464 0.093819
vt 0.931699 0.094712
vt 0.878067 0.163519
vt 0.878067 0.258472
vt 0.877285 0.262430
vt 0.875396 0.265962
vt 0.858370 0.286559
vt 0.858370 0.135432
vt 0.875396 0.156028
vt 0.877285 0.159561
vt 0.898700 0.191327
vt 0.901921 0.191327
vt 0.901921 0.259371
vt 0.898700 0.259371
vt 0.983050 0.363383
vt 0.983878 0.363383
vt 0.622255 0.525408
vt 0.585196 0.564683
vt 0.585196 0.934278
vt 0.622258 0.971326
vt 0.741611 0.976223
vt 0.744999 0.990428
vt 0.651102 0.990428
vt 0.654457 0.976223
vt 0.990517 0.386205
vt 0.990765 0.386205
vt 0.910899 0.318689
vt 0.910948 0.299981
vt 0.912264 0.299944
vt 0.912215 0.318652
vt 0.831489 0.460757
vt 0.969263 0.460757
vt 0.997070 0.485077
vt 0.803681 0.485077
vt 0.935628 0.100298
vt 0.931684 0.101203
vt 0.931684 0.098288
vt 0.935575 0.097386
vt 0.740482 0.971326
vt 0.655575 0.971326
vt 0.853115 0.008227
vt 0.844394 0.015854
vt 0.839398 0.013714
vt 0.851022 0.001449
vt 0.832834 0.045893
vt 0.832834 0.001451
vt 0.836055 0.001449
vt 0.836055 0.045892
vt 0.908044 0.135179
vt 0.907941 0.179743
vt 0.904719 0.179737
vt 0.904822 0.135173
vt 0.844394 0.118766
vt 0.839398 0.129634
vt 0.778521 0.497076
vt 0.617518 0.497076
vt 0.613347 0.493203
vt 0.613348 0.493201
vt 0.782692 0.493203
vt 0.765812 0.526575
vt 0.629825 0.526575
vt 0.646397 0.540775
vt 0.649354 0.541391
vt 0.648973 0.545086
vt 0.645065 0.544272
vt 0.643842 0.539303
vt 0.641652 0.542306
vt 0.861085 0.092539
vt 0.861085 0.116104
vt 0.853710 0.116102
vt 0.853710 0.092536
vt 0.563199 0.943181
vt 0.614459 0.490519
vt 0.617318 0.501454
vt 0.778320 0.501454
vt 0.782491 0.505440
vt 0.782491 0.505441
vt 0.613146 0.505440
vt 0.613347 0.005342
vt 0.617518 0.001457
vt 0.778521 0.001457
vt 0.782692 0.005342
vt 0.938819 0.149417
vt 0.938819 0.066386
vt 0.944840 0.066047
vt 0.944840 0.149753
vt 0.563198 0.943181
vt 0.559354 0.938904
vt 0.559354 0.559431
vt 0.563198 0.555369
vt 0.952915 0.292462
vt 0.952915 0.268897
vt 0.956560 0.268897
vt 0.956560 0.292462
vt 0.963135 0.132096
vt 0.974509 0.132096
vt 0.974650 0.231215
vt 0.963276 0.231215
vt 0.893108 0.094786
vt 0.893108 0.071221
vt 0.894519 0.071219
vt 0.894519 0.094784
vt 0.915947 0.053778
vt 0.919162 0.053778
vt 0.919137 0.057626
vt 0.922331 0.053778
vt 0.835939 0.056029
vt 0.836485 0.059457
vt 0.832641 0.055291
vt 0.936646 0.007517
vt 0.936646 0.010725
vt 0.932798 0.013108
vt 0.936646 0.014578
vt 0.936646 0.018043
vt 0.964176 0.012229
vt 0.964176 0.008764
vt 0.968023 0.007294
vt 0.964176 0.004911
vt 0.964176 0.001703
vt 0.559900 0.556005
vt 0.825848 0.033256
vt 0.822679 0.033256
vt 0.822655 0.029408
vt 0.819465 0.033256
vt 0.559573 0.039228
vt 0.559573 0.035757
vt 0.563415 0.034456
vt 0.559572 0.031952
vt 0.559569 0.028833
vt 0.613890 0.996318
vt 0.572432 0.028589
vt 0.575733 0.028594
vt 0.575572 0.032435
vt 0.579019 0.028596
vt 0.572424 0.033221
vt 0.569137 0.033219
vt 0.568977 0.029364
vt 0.565836 0.033215
vt 0.781949 0.496512
vt 0.971424 0.007518
vt 0.971427 0.010637
vt 0.967575 0.013141
vt 0.971429 0.014442
vt 0.971429 0.017913
vt 0.967298 0.265329
vt 0.967298 0.241764
vt 0.974590 0.241764
vt 0.974590 0.265329
vt 0.959117 0.190739
vt 0.947743 0.190739
vt 0.947743 0.189633
vt 0.959117 0.189633
vt 0.947743 0.188404
vt 0.959117 0.188404
vt 0.899596 0.067466
vt 0.888221 0.067466
vt 0.888219 0.066688
vt 0.899593 0.066688
vt 0.963133 0.131301
vt 0.974508 0.131301
vt 0.960780 0.268897
vt 0.960779 0.292462
vt 0.958685 0.292462
vt 0.958685 0.268897
vt 0.974652 0.234532
vt 0.963278 0.234532
vt 0.963278 0.233424
vt 0.974652 0.233424
vt 0.963277 0.232210
vt 0.974651 0.232210
vt 0.836485 0.439076
vt 0.832641 0.443254
vt 0.607478 0.992772
vt 0.603474 0.988769
vt 0.600795 0.988868
vt 0.598004 0.988217
vt 0.596017 0.986231
vt 0.595366 0.983441
vt 0.595465 0.980763
vt 0.587456 0.972757
vt 0.584777 0.972856
vt 0.581986 0.972206
vt 0.579999 0.970219
vt 0.579348 0.967429
vt 0.579447 0.964751
vt 0.571438 0.956746
vt 0.568759 0.956845
vt 0.565968 0.956194
vt 0.563981 0.954207
vt 0.563330 0.951417
vt 0.563429 0.948740
vt 0.930638 0.286662
vt 0.930638 0.263097
vt 0.934325 0.263098
vt 0.934325 0.286663
vt 0.969614 0.317653
vt 0.969614 0.294088
vt 0.971085 0.294085
vt 0.971085 0.317650
vt 0.852299 0.116104
vt 0.852299 0.092539
vt 0.832409 0.448916
vt 0.832508 0.451595
vt 0.831857 0.454386
vt 0.829870 0.456373
vt 0.827079 0.457024
vt 0.824400 0.456925
vt 0.816391 0.464934
vt 0.816490 0.467612
vt 0.815839 0.470403
vt 0.813852 0.472391
vt 0.811061 0.473042
vt 0.808382 0.472943
vt 0.800373 0.480952
vt 0.800472 0.483630
vt 0.799821 0.486421
vt 0.797834 0.488409
vt 0.795043 0.489060
vt 0.792364 0.488960
vt 0.788360 0.492965
vt 0.963279 0.236944
vt 0.974653 0.236944
vt 0.974652 0.237626
vt 0.963278 0.237626
vt 0.788360 0.005568
vt 0.790668 0.005244
vt 0.794041 0.005691
vt 0.796246 0.007897
vt 0.796693 0.011269
vt 0.796369 0.013577
vt 0.804378 0.021586
vt 0.806686 0.021262
vt 0.810058 0.021709
vt 0.812264 0.023914
vt 0.812711 0.027287
vt 0.812387 0.029595
vt 0.820396 0.037604
vt 0.822704 0.037280
vt 0.826076 0.037727
vt 0.828281 0.039932
vt 0.828729 0.043305
vt 0.828405 0.045613
vt 0.832409 0.049617
vt 0.966116 0.265329
vt 0.966116 0.241764
vt 0.563429 0.549596
vt 0.567434 0.545593
vt 0.567110 0.543286
vt 0.567557 0.539915
vt 0.569762 0.537710
vt 0.573134 0.537263
vt 0.575443 0.537587
vt 0.583452 0.529582
vt 0.583128 0.527274
vt 0.583575 0.523903
vt 0.585780 0.521699
vt 0.589152 0.521252
vt 0.591460 0.521576
vt 0.599469 0.513570
vt 0.599145 0.511262
vt 0.599593 0.507891
vt 0.601798 0.505687
vt 0.605170 0.505240
vt 0.607478 0.505564
vt 0.876726 0.311533
vt 0.876726 0.335099
vt 0.875355 0.335100
vt 0.875355 0.311535
vt 0.888411 0.335095
vt 0.888411 0.311530
vt 0.890065 0.311527
vt 0.890065 0.335092
vt 0.959117 0.193267
vt 0.947743 0.193267
vt 0.947743 0.192299
vt 0.959117 0.192299
vt 0.947743 0.191310
vt 0.959117 0.191310
vt 0.965062 0.317668
vt 0.965062 0.294103
vt 0.966717 0.294100
vt 0.966717 0.317665
vt 0.962059 0.265329
vt 0.962059 0.241764
vt 0.964067 0.241764
vt 0.964067 0.265329
vt 0.878381 0.311530
vt 0.878381 0.335096
vt 0.863994 0.116108
vt 0.863994 0.092543
vt 0.866001 0.092543
vt 0.866001 0.116108
vt 0.566082 0.056403
vt 0.563400 0.055292
vt 0.563400 0.443253
vt 0.566082 0.442142
vt 0.829756 0.556480
vt 0.815269 0.562755
vt 0.832438 0.555370
vt 0.855166 0.163049
vt 0.854918 0.163049
vt 0.854941 0.147079
vt 0.855189 0.147039
vt 0.983050 0.335448
vt 0.983878 0.335448
vt 0.815269 0.936348
vt 0.829756 0.942070
vt 0.781380 0.990428
vt 0.775379 0.976223
vt 0.855189 0.253688
vt 0.854941 0.253688
vt 0.943590 0.192833
vt 0.943857 0.219504
vt 0.940089 0.218397
vt 0.941053 0.189682
vt 0.773382 0.525408
vt 0.810441 0.564683
vt 0.810441 0.934278
vt 0.773379 0.971326
vt 0.983050 0.284402
vt 0.983878 0.284402
vt 0.996195 0.281676
vt 0.995678 0.363984
vt 0.994361 0.363976
vt 0.994878 0.281668
vt 0.939992 0.222312
vt 0.943887 0.223472
vt 0.896326 0.008227
vt 0.898420 0.001449
vt 0.910044 0.013714
vt 0.905048 0.015854
vt 0.898700 0.164963
vt 0.898700 0.135171
vt 0.901921 0.135171
vt 0.901921 0.164963
vt 0.910044 0.129634
vt 0.905006 0.118766
vt 0.749240 0.540775
vt 0.750573 0.544272
vt 0.746665 0.545086
vt 0.746284 0.541391
vt 0.751795 0.539303
vt 0.753985 0.542306
vt 0.832438 0.943181
vt 0.832440 0.555369
vt 0.836284 0.559431
vt 0.836284 0.938904
vt 0.832440 0.943181
vt 0.975061 0.270689
vt 0.963687 0.270689
vt 0.963687 0.268892
vt 0.975061 0.268892
vt 0.967354 0.288492
vt 0.963687 0.273949
vt 0.975061 0.273949
vt 0.971188 0.288492
vt 0.952905 0.319596
vt 0.952905 0.296031
vt 0.954324 0.296031
vt 0.954324 0.319596
vt 0.851537 0.137371
vt 0.855385 0.141928
vt 0.851537 0.140838
vt 0.851537 0.144577
vt 0.851537 0.147588
vt 0.614091 0.002021
vt 0.802060 0.015735
vt 0.805107 0.011887
vt 0.805492 0.015735
vt 0.808846 0.015735
vt 0.845751 0.001458
vt 0.842012 0.005306
vt 0.842397 0.001458
vt 0.838964 0.001458
vt 0.781748 0.502018
vt 0.978171 0.011934
vt 0.974323 0.006273
vt 0.978171 0.008923
vt 0.978171 0.005183
vt 0.978171 0.001717
vt 0.909527 0.001465
vt 0.906007 0.005296
vt 0.906227 0.001461
vt 0.902902 0.001453
vt 0.835738 0.942331
vt 0.991676 0.045036
vt 0.987831 0.039380
vt 0.991670 0.041932
vt 0.991667 0.038134
vt 0.991667 0.034660
vt 0.912949 0.042407
vt 0.916809 0.047127
vt 0.912949 0.045881
vt 0.912953 0.049679
vt 0.912958 0.052783
vt 0.559554 0.439076
vt 0.563399 0.443254
vt 0.560100 0.442504
vt 0.583374 0.017717
vt 0.586479 0.013865
vt 0.586699 0.017725
vt 0.589999 0.017728
vt 0.895442 0.270833
vt 0.895443 0.294399
vt 0.887998 0.294399
vt 0.887998 0.270833
vt 0.942219 0.025015
vt 0.942219 0.001450
vt 0.944436 0.001450
vt 0.944436 0.025015
vt 0.939950 0.025015
vt 0.939950 0.001450
vt 0.899485 0.025141
vt 0.888111 0.025141
vt 0.888109 0.024151
vt 0.899483 0.024151
vt 0.963687 0.272988
vt 0.975061 0.272988
vt 0.963687 0.271795
vt 0.975061 0.271795
vt 0.989762 0.030854
vt 0.989762 0.007289
vt 0.991943 0.007292
vt 0.991943 0.030857
vt 0.987564 0.030850
vt 0.987564 0.007284
vt 0.563399 0.055291
vt 0.559554 0.059457
vt 0.985940 0.030844
vt 0.985940 0.007279
vt 0.832208 0.948740
vt 0.832307 0.951417
vt 0.831656 0.954207
vt 0.829669 0.956194
vt 0.826878 0.956845
vt 0.824199 0.956746
vt 0.816190 0.964751
vt 0.816290 0.967429
vt 0.815638 0.970219
vt 0.813651 0.972206
vt 0.810860 0.972856
vt 0.808181 0.972757
vt 0.800172 0.980763
vt 0.800272 0.983441
vt 0.799621 0.986231
vt 0.797633 0.988217
vt 0.794842 0.988868
vt 0.792163 0.988769
vt 0.788159 0.992772
vt 0.888109 0.020046
vt 0.899483 0.020046
vt 0.899482 0.021831
vt 0.888108 0.021831
vt 0.564594 0.025036
vt 0.564594 0.001470
vt 0.565987 0.001466
vt 0.565987 0.025032
vt 0.892964 0.321531
vt 0.892964 0.297966
vt 0.894383 0.297966
vt 0.894383 0.321531
vt 0.607679 0.492965
vt 0.603675 0.488960
vt 0.600996 0.489060
vt 0.598205 0.488409
vt 0.596218 0.486421
vt 0.595567 0.483630
vt 0.595666 0.480952
vt 0.587657 0.472943
vt 0.584978 0.473042
vt 0.582187 0.472391
vt 0.580200 0.470403
vt 0.579549 0.467612
vt 0.579648 0.464934
vt 0.571639 0.456925
vt 0.568960 0.457024
vt 0.566169 0.456373
vt 0.564182 0.454386
vt 0.563531 0.451595
vt 0.563630 0.448916
vt 0.820365 0.001470
vt 0.820365 0.025036
vt 0.818620 0.025038
vt 0.818620 0.001473
vt 0.563630 0.049617
vt 0.567634 0.045613
vt 0.567311 0.043305
vt 0.567758 0.039932
vt 0.569963 0.037727
vt 0.573335 0.037280
vt 0.575643 0.037604
vt 0.583652 0.029595
vt 0.583328 0.027287
vt 0.583776 0.023914
vt 0.585981 0.021709
vt 0.589353 0.021262
vt 0.591661 0.021586
vt 0.599670 0.013577
vt 0.599346 0.011269
vt 0.599793 0.007897
vt 0.601999 0.005691
vt 0.605371 0.005244
vt 0.607679 0.005568
vt 0.840805 0.135178
vt 0.840805 0.158743
vt 0.839396 0.158743
vt 0.839396 0.135178
vt 0.788159 0.505564
vt 0.790467 0.505240
vt 0.793840 0.505687
vt 0.796045 0.507891
vt 0.796492 0.511262
vt 0.796168 0.513570
vt 0.804177 0.521576
vt 0.806485 0.521252
vt 0.809858 0.521699
vt 0.812063 0.523903
vt 0.812510 0.527274
vt 0.812186 0.529582
vt 0.820195 0.537587
vt 0.822503 0.537263
vt 0.825875 0.537710
vt 0.828081 0.539915
vt 0.828528 0.543286
vt 0.828204 0.545593
vt 0.832208 0.549596
vt 0.921435 0.301845
vt 0.921435 0.325410
vt 0.920365 0.325406
vt 0.920365 0.301841
vt 0.881479 0.116105
vt 0.881479 0.092540
vt 0.883399 0.092540
vt 0.883399 0.116105
vt 0.879429 0.116105
vt 0.879429 0.092540
vt 0.933749 0.313776
vt 0.933749 0.290211
vt 0.935486 0.290211
vt 0.935486 0.313776
vt 0.578342 0.025016
vt 0.578342 0.001451
vt 0.580262 0.001451
vt 0.580262 0.025016
vt 0.576292 0.025016
vt 0.576292 0.001451
vt 0.842541 0.135178
vt 0.842541 0.158743
vt 0.849351 0.085101
vt 0.849351 0.061535
vt 0.851272 0.061535
vt 0.851272 0.085101
vt 0.847302 0.085101
vt 0.847302 0.061535
vt 0.862217 0.130442
vt 0.852355 0.130442
vt 0.841352 0.130442
vt 0.008104 0.950114
vt 0.040006 0.982004
vt 0.038938 0.984583
vt 0.001876 0.947535
vt 0.188990 0.982004
vt 0.220893 0.950114
vt 0.227121 0.947535
vt 0.190058 0.984583
vt 0.156558 0.982004
vt 0.157161 0.984583
vt 0.908021 0.273677
vt 0.904800 0.273672
vt 0.904742 0.205969
vt 0.907963 0.205974
vt 0.912950 0.214502
vt 0.912950 0.179417
vt 0.944840 0.182599
vt 0.620023 0.477100
vt 0.776016 0.477100
vt 0.912950 0.001713
vt 0.944840 0.033615
vt 0.912950 0.036797
vt 0.946809 0.222033
vt 0.950021 0.222033
vt 0.950020 0.286165
vt 0.946809 0.286165
vt 0.898700 0.315864
vt 0.898700 0.286071
vt 0.901921 0.286071
vt 0.901921 0.315864
vt 0.854441 0.375144
vt 0.854439 0.292352
vt 0.856518 0.292232
vt 0.856518 0.375263
vt 0.908044 0.300244
vt 0.904822 0.300238
vt 0.072852 0.982004
vt 0.072254 0.984583
vt 0.810767 0.001449
vt 0.810767 0.008525
vt 0.807555 0.008525
vt 0.807555 0.001449
vt 0.986781 0.284604
vt 0.987608 0.284706
vt 0.579516 0.436593
vt 0.579516 0.061983
vt 0.620023 0.021476
vt 0.776016 0.021476
vt 0.816523 0.061983
vt 0.816523 0.436593
vt 0.888235 0.976952
vt 0.888235 0.879053
vt 0.958920 0.848724
vt 0.968782 0.883546
vt 0.888235 0.510488
vt 0.888235 0.607134
vt 0.875375 0.612272
vt 0.875375 0.519579
vt 0.949999 0.311330
vt 0.946809 0.311330
vt 0.875374 0.967845
vt 0.875374 0.873947
vt 0.946809 0.197185
vt 0.950020 0.197185
vt 0.933250 0.001463
vt 0.933250 0.008186
vt 0.930060 0.008190
vt 0.930060 0.001466
vt 0.968775 0.602598
vt 0.958937 0.637536
vt 0.997569 0.146803
vt 0.997496 0.185954
vt 0.994285 0.185949
vt 0.994357 0.146798
vt 0.995703 0.111749
vt 0.995703 0.034637
vt 0.997754 0.035429
vt 0.997754 0.110952
vt 0.935596 0.113411
vt 0.935596 0.148662
vt 0.933604 0.150341
vt 0.933583 0.111922
vt 0.992297 0.184787
vt 0.992364 0.148870
vt 0.995703 0.006966
vt 0.997754 0.005794
vt 0.997569 0.253111
vt 0.994357 0.253106
vt 0.995703 0.139065
vt 0.997754 0.140214
vt 0.991913 0.004282
vt 0.991969 0.001689
vt 0.991969 0.144310
vt 0.991913 0.141743
vt 0.930393 0.150343
vt 0.930393 0.111923
vt 0.996136 0.275894
vt 0.996185 0.278841
vt 0.994868 0.278832
vt 0.994820 0.275885
vt 0.277290 0.953829
vt 0.525017 0.953829
vt 0.532573 0.955403
vt 0.539104 0.959165
vt 0.574928 0.991695
vt 0.227380 0.991695
vt 0.263204 0.959165
vt 0.269735 0.955403
vt 0.995678 0.257271
vt 0.994361 0.257263
vt 0.866280 0.282457
vt 0.867597 0.282460
vt 0.867597 0.392450
vt 0.866280 0.392446
vt 0.910948 0.323774
vt 0.910910 0.321439
vt 0.912226 0.321402
vt 0.912264 0.323737
vt 0.986649 0.281317
vt 0.986649 0.238125
vt 0.991410 0.241258
vt 0.991410 0.281427
vt 0.918616 0.298680
vt 0.918616 0.255472
vt 0.923376 0.255362
vt 0.923376 0.295547
vt 0.884133 0.276652
vt 0.884133 0.335690
vt 0.881435 0.335690
vt 0.881435 0.276652
vt 0.916762 0.225676
vt 0.917652 0.214634
vt 0.923065 0.214634
vt 0.923966 0.225676
vt 0.932340 0.313776
vt 0.932340 0.290211
vt 0.927690 0.313782
vt 0.927690 0.290216
vt 0.929427 0.290216
vt 0.929427 0.313782
vt 0.926281 0.313782
vt 0.926281 0.290216
vt 0.975170 0.290232
vt 0.975170 0.313797
vt 0.974099 0.313793
vt 0.974099 0.290228
vt 0.871082 0.300216
vt 0.871082 0.276651
vt 0.878527 0.276651
vt 0.878527 0.300216
vt 0.888107 0.019374
vt 0.899481 0.019374
vt 0.816785 0.025037
vt 0.816785 0.001472
vt 0.815352 0.025033
vt 0.815352 0.001468
vt 0.562848 0.025038
vt 0.562848 0.001473
vt 0.561014 0.025037
vt 0.561014 0.001472
vt 0.559581 0.025033
vt 0.559581 0.001468
vt 0.888106 0.018531
vt 0.899480 0.018531
vt 0.888106 0.017646
vt 0.899480 0.017646
vt 0.888108 0.016954
vt 0.899483 0.016954
vt 0.573382 0.001471
vt 0.573382 0.025036
vt 0.957228 0.319592
vt 0.957228 0.296027
vt 0.958647 0.296027
vt 0.958647 0.319592
vt 0.888108 0.022939
vt 0.899482 0.022939
vt 0.959117 0.143762
vt 0.947743 0.143762
vt 0.947743 0.142928
vt 0.959117 0.142928
vt 0.829154 0.001471
vt 0.829154 0.025036
vt 0.821759 0.025032
vt 0.821759 0.001467
vt 0.905893 0.303800
vt 0.905893 0.327365
vt 0.904823 0.327362
vt 0.904823 0.303796
vt 0.868050 0.092543
vt 0.868050 0.116108
vt 0.869233 0.092543
vt 0.869233 0.116108
vt 0.963691 0.317670
vt 0.963691 0.294104
vt 0.876524 0.092543
vt 0.876524 0.116108
vt 0.910946 0.242089
vt 0.910946 0.218524
vt 0.912416 0.218520
vt 0.912416 0.242085
vt 0.963279 0.236061
vt 0.974654 0.236061
vt 0.963279 0.235213
vt 0.974653 0.235213
vt 0.848712 0.092539
vt 0.848712 0.116105
vt 0.847300 0.116102
vt 0.847300 0.092537
vt 0.850542 0.092540
vt 0.850542 0.116105
vt 0.889521 0.071222
vt 0.889521 0.094787
vt 0.888109 0.094784
vt 0.888109 0.071219
vt 0.891351 0.071222
vt 0.891351 0.094787
vt 0.901894 0.071221
vt 0.901894 0.094786
vt 0.928465 0.263095
vt 0.928465 0.286661
vt 0.926283 0.286658
vt 0.926283 0.263092
vt 0.947743 0.187380
vt 0.959117 0.187380
vt 0.989767 0.224633
vt 0.989767 0.201068
vt 0.991238 0.201065
vt 0.991238 0.224630
vt 0.887039 0.335097
vt 0.887039 0.311532
vt 0.609800 0.002239
vt 0.605966 0.002239
vt 0.605966 0.001458
vt 0.609800 0.001458
vt 0.726302 0.724022
vt 0.664103 0.724022
vt 0.664103 0.562143
vt 0.726302 0.562143
vt 0.685726 0.941055
vt 0.615765 0.941055
vt 0.615765 0.758907
vt 0.685726 0.758907
vt 0.888802 0.098363
vt 0.888802 0.106306
vt 0.886300 0.106313
vt 0.886300 0.098370
vt 0.971188 0.290224
vt 0.967354 0.290224
vt 0.927159 0.001453
vt 0.927159 0.009396
vt 0.924448 0.009396
vt 0.924448 0.001453
vt 0.915710 0.253535
vt 0.915710 0.296760
vt 0.910950 0.293626
vt 0.910950 0.253426
vt 0.594250 0.001450
vt 0.594250 0.009393
vt 0.590486 0.009394
vt 0.590486 0.001451
vt 0.852065 0.015260
vt 0.852065 0.058468
vt 0.847304 0.058579
vt 0.847304 0.018394
vt 0.959157 0.196128
vt 0.959157 0.251309
vt 0.953073 0.248334
vt 0.953073 0.199103
vt 0.981545 0.012669
vt 0.981545 0.001456
vt 0.982987 0.001452
vt 0.982987 0.012665
vt 0.891705 0.109570
vt 0.891705 0.098357
vt 0.893220 0.098357
vt 0.893220 0.109570
vt 0.783345 0.001452
vt 0.787519 0.001452
vt 0.788138 0.001934
vt 0.782725 0.001934
vt 0.602194 0.001933
vt 0.598020 0.001933
vt 0.597401 0.001451
vt 0.602813 0.001451
vt 0.870505 0.356240
vt 0.870505 0.313293
vt 0.872445 0.311783
vt 0.872445 0.357750
vt 0.989398 0.146048
vt 0.989398 0.188995
vt 0.987458 0.190505
vt 0.987458 0.144538
vt 0.778561 0.941092
vt 0.710845 0.941092
vt 0.710845 0.742767
vt 0.778561 0.742767
vt 0.587578 0.001461
vt 0.587578 0.010108
vt 0.583169 0.010111
vt 0.583169 0.001463
vt 0.929386 0.259042
vt 0.929386 0.203883
vt 0.935470 0.206856
vt 0.935470 0.256069
vt 0.602194 0.003890
vt 0.598020 0.003890
vt 0.958717 0.637536
vt 0.958700 0.848724
vt 0.001453 0.943491
vt 0.001453 0.001453
vt 0.556672 0.001453
vt 0.556288 0.943491
vt 0.936672 0.432711
vt 0.944864 0.355621
vt 0.944864 0.433582
vt 0.971439 0.358907
vt 0.971439 0.438398
vt 0.967949 0.438398
vt 0.967949 0.358907
vt 0.971439 0.330905
vt 0.887349 0.130442
vt 0.914689 0.251385
vt 0.926064 0.251385
vt 0.989665 0.057519
vt 0.989665 0.091148
vt 0.989665 0.093597
vt 0.989665 0.127239
vt 0.987458 0.146232
vt 0.987458 0.192200
vt 0.984667 0.226812
vt 0.978171 0.307391
vt 0.804596 0.007517
vt 0.799184 0.007517
vt 0.799888 0.001457
vt 0.803722 0.001457
vt 0.908090 0.130442
vt 0.897087 0.130442
vt 0.839397 0.226802
vt 0.839397 0.193173
vt 0.851537 0.443045
vt 0.844961 0.362466
vt 0.842137 0.327854
vt 0.842137 0.281887
vt 0.839397 0.262893
vt 0.839397 0.229251
s 0
usemtl tablet
f 361/1/1 362/2/1 35/3/1 34/4/1
f 363/5/1 364/6/1 41/7/1 40/8/1
f 30/9/2 17/10/2 6/11/2 5/12/2
f 32/13/3 182/14/3 170/15/3 21/16/3
f 5/12/4 6/11/4 37/17/4 36/18/4
f 366/19/1 185/20/1 35/3/1 362/2/1
f 189/21/5 219/22/5 217/23/5 67/24/5 69/25/5 39/26/5 315/27/5 325/28/5
f 16/29/6 19/30/6 26/31/6 27/32/6
f 5/12/7 154/33/7 180/34/7 30/9/7
f 313/35/8 12/36/8 301/37/8 312/38/8
f 14/39/9 13/40/9 8/41/9 7/42/9
f 15/43/10 16/44/10 27/45/10 300/46/10
f 19/47/11 30/48/11 33/49/11 20/50/11
f 21/51/12 170/52/12 171/53/12 169/54/12 168/55/12 19/56/12 20/57/12 22/58/12
f 327/59/8 329/60/8 319/61/8 317/62/8
f 312/38/8 322/63/8 323/64/8 313/35/8
f 17/10/13 14/39/13 7/42/13 6/11/13
f 19/65/14 16/66/14 17/10/14 30/9/14
f 15/67/15 12/68/15 13/40/15 14/39/15
f 324/69/16 321/70/16 311/71/16 314/72/16
f 16/66/17 15/67/17 14/39/17 17/10/17
f 12/73/18 15/43/18 300/46/18 301/74/18
f 24/75/19 18/76/19 353/77/19 356/78/19
f 9/79/4 158/80/4 159/81/4 10/82/4
f 32/83/20 21/84/20 22/85/20 31/86/20
f 31/86/21 22/85/21 20/50/21 33/49/21
f 323/87/22 324/69/22 314/72/22 313/88/22
f 9/89/4 10/90/4 27/91/4 26/92/4
f 29/93/23 28/94/23 309/95/23 306/96/23
f 177/97/24 178/98/24 308/99/24 310/100/24
f 10/90/4 11/101/4 300/102/4 27/91/4
f 73/103/25 223/104/25 224/105/25 190/106/25 40/8/25 74/107/25
f 167/108/26 18/109/26 30/9/26 180/34/26
f 25/110/26 23/111/26 32/112/26 31/113/26
f 24/114/26 25/110/26 31/113/26 33/115/26
f 18/109/26 24/114/26 33/115/26 30/9/26
f 364/6/1 361/1/1 34/4/1 41/7/1
f 91/116/23 86/117/23 85/118/23 90/119/23
f 7/42/4 8/41/4 39/26/4 38/120/4
f 40/8/1 190/106/1 367/121/1 363/5/1
f 53/122/27 203/123/27 204/124/27 186/125/27 36/18/27 54/126/27
f 35/3/28 185/20/28 199/127/28 197/128/28 47/129/28 49/130/28
f 6/11/4 7/42/4 38/120/4 37/17/4
f 320/131/4 330/132/4 328/133/4 318/134/4
f 37/17/29 38/120/29 64/135/29 63/136/29 57/137/29 59/138/29
f 120/139/30 125/140/30 58/141/30 42/142/30
f 36/18/4 186/125/4 154/33/4 5/12/4
f 43/143/31 57/144/31 63/145/31 77/146/31
f 93/147/32 104/148/32 88/149/32 83/150/32
f 42/151/33 45/152/33 44/153/33
f 45/152/34 46/154/34 44/153/34
f 46/155/35 43/156/35 44/157/35
f 47/158/36 50/159/36 49/160/36
f 50/159/37 51/161/37 49/160/37
f 51/161/38 48/162/38 49/160/38
f 52/163/39 55/164/39 54/165/39
f 55/164/40 56/166/40 54/165/40
f 56/166/41 53/167/41 54/165/41
f 57/137/42 60/168/42 59/138/42
f 60/169/43 61/170/43 59/171/43
f 61/170/44 58/172/44 59/171/44
f 62/173/45 65/174/45 64/175/45
f 65/174/46 66/176/46 64/175/46
f 66/176/47 63/177/47 64/175/47
f 67/24/48 70/178/48 69/25/48
f 70/179/49 71/180/49 69/181/49
f 71/180/50 68/182/50 69/181/50
f 72/183/51 75/184/51 74/185/51
f 75/184/52 76/186/52 74/185/52
f 76/187/53 73/103/53 74/107/53
f 77/188/54 80/189/54 79/190/54
f 80/189/55 81/191/55 79/190/55
f 81/191/56 78/192/56 79/190/56
f 122/193/30 117/194/30 116/195/30 121/196/30
f 52/197/57 48/198/57 51/199/57 55/200/57
f 55/200/58 51/199/58 50/201/58 56/202/58
f 76/203/59 70/204/59 67/205/59 73/206/59
f 57/144/60 43/143/60 46/207/60 60/208/60
f 60/209/61 46/210/61 45/211/61 61/212/61
f 61/212/62 45/211/62 42/142/62 58/141/62
f 62/213/63 78/214/63 81/215/63 65/216/63
f 65/216/64 81/215/64 80/217/64 66/218/64
f 44/157/65 43/156/65 77/219/65 79/220/65 41/7/65 34/4/65
f 66/218/66 80/217/66 77/146/66 63/145/66
f 38/120/67 39/26/67 69/25/67 68/221/67 82/222/67 92/223/67 94/224/67 95/225/67 93/226/67 83/227/67 84/228/67 96/229/67 98/230/67 99/231/67 97/232/67 85/233/67 86/234/67 100/235/67 102/236/67 103/237/67 101/238/67 62/239/67 64/135/67
f 68/240/23 72/241/23 87/242/23 82/243/23
f 84/244/68 89/245/68 109/246/68 96/247/68
f 97/248/32 108/249/32 90/119/32 85/118/32
f 40/8/69 41/7/69 79/220/69 78/250/69 112/251/69 114/252/69 115/253/69 113/254/69 91/255/69 90/256/69 108/257/69 110/258/69 111/259/69 109/260/69 89/261/69 88/262/69 104/263/69 106/264/69 107/265/69 105/266/69 87/267/69 72/268/69 74/107/69
f 115/269/70 102/270/70 100/271/70 113/272/70
f 34/4/71 35/3/71 49/130/71 48/273/71 126/274/71 128/275/71 129/276/71 127/277/71 116/278/71 117/279/71 130/280/71 132/281/71 133/282/71 131/283/71 118/284/71 119/285/71 134/286/71 136/287/71 137/288/71 135/289/71 120/290/71 42/291/71 44/157/71
f 117/194/72 122/193/72 143/292/72 130/293/72
f 36/18/73 37/17/73 59/138/73 58/294/73 125/295/73 146/296/73 148/297/73 149/298/73 147/299/73 124/300/73 123/301/73 142/302/73 144/303/73 145/304/73 143/305/73 122/306/73 121/307/73 138/308/73 140/309/73 141/310/73 139/311/73 52/312/73 54/126/73
f 135/313/74 146/314/74 125/315/74 120/316/74
f 138/317/75 127/318/75 129/319/75 140/320/75
f 140/321/30 129/322/30 128/323/30 141/324/30
f 141/324/76 128/323/76 126/325/76 139/326/76
f 142/327/75 131/328/75 133/329/75 144/330/75
f 144/331/30 133/332/30 132/333/30 145/334/30
f 145/334/76 132/333/76 130/293/76 143/292/76
f 146/314/75 135/313/75 137/335/75 148/336/75
f 148/337/30 137/338/30 136/339/30 149/340/30
f 365/341/1 184/342/1 185/20/1 366/19/1
f 367/121/1 190/106/1 191/343/1 368/344/1
f 180/34/77 154/33/77 155/345/77 166/346/77
f 154/33/4 186/125/4 187/347/4 155/345/4
f 165/348/78 176/349/78 175/350/78 168/351/78
f 323/64/8 322/63/8 303/352/8 161/353/8
f 163/354/79 156/355/79 157/356/79 162/357/79
f 164/358/31 302/359/31 176/349/31 165/348/31
f 168/360/80 169/361/80 183/362/80 180/363/80
f 166/346/81 155/345/81 156/355/81 163/354/81
f 168/364/82 180/34/82 166/346/82 165/365/82
f 164/366/83 163/354/83 162/357/83 161/367/83
f 165/365/84 166/346/84 163/354/84 164/366/84
f 161/353/30 303/352/30 302/368/30 164/369/30
f 172/370/8 23/371/8 355/372/8 359/373/8
f 182/14/85 181/374/85 171/375/85 170/15/85
f 181/374/86 183/362/86 169/361/86 171/375/86
f 158/376/4 175/377/4 176/378/4 159/379/4
f 26/92/4 175/377/4 158/376/4 9/89/4
f 305/380/8 177/381/8 310/382/8 307/383/8
f 159/379/4 176/378/4 302/384/4 160/385/4
f 174/386/26 181/387/26 182/388/26 172/389/26
f 173/390/26 183/391/26 181/387/26 174/386/26
f 172/389/26 182/388/26 32/112/26 23/111/26
f 167/108/26 180/34/26 183/391/26 173/390/26
f 368/344/1 191/343/1 184/342/1 365/341/1
f 156/355/4 188/392/4 189/21/4 157/356/4
f 155/345/4 187/347/4 188/392/4 156/355/4
f 187/347/87 209/393/87 207/394/87 213/395/87 214/396/87 188/392/87
f 192/397/18 208/398/18 275/399/18 270/400/18
f 377/401/10 207/402/10 193/403/10 378/404/10
f 233/405/88 238/406/88 254/407/88 243/408/88
f 192/409/89 194/410/89 195/411/89
f 195/411/90 194/410/90 196/412/90
f 196/412/91 194/410/91 193/413/91
f 197/128/92 199/127/92 200/414/92
f 200/415/93 199/416/93 201/417/93
f 201/417/94 199/416/94 198/418/94
f 202/419/95 204/420/95 205/421/95
f 205/421/96 204/420/96 206/422/96
f 206/423/97 204/124/97 203/123/97
f 207/424/98 209/425/98 210/426/98
f 210/426/99 209/425/99 211/427/99
f 211/427/100 209/425/100 208/428/100
f 212/429/101 214/430/101 215/431/101
f 215/431/102 214/430/102 216/432/102
f 216/433/103 214/396/103 213/395/103
f 217/434/104 219/435/104 220/436/104
f 220/436/105 219/435/105 221/437/105
f 221/437/106 219/435/106 218/438/106
f 222/439/107 224/440/107 225/441/107
f 225/441/108 224/440/108 226/442/108
f 226/442/109 224/440/109 223/443/109
f 227/444/110 229/445/110 230/446/110
f 230/447/111 229/448/111 231/449/111
f 231/449/112 229/448/112 228/450/112
f 271/451/18 266/452/18 267/453/18 272/454/18
f 205/455/113 201/456/113 198/457/113 202/458/113
f 206/459/114 200/460/114 201/456/114 205/455/114
f 223/461/115 217/462/115 220/463/115 226/464/115
f 210/465/116 196/466/116 193/403/116 207/402/116
f 211/467/117 195/468/117 196/466/117 210/465/117
f 208/398/118 192/397/118 195/468/118 211/467/118
f 215/469/119 231/470/119 228/471/119 212/472/119
f 216/473/120 230/474/120 231/470/120 215/469/120
f 194/475/121 184/342/121 191/343/121 229/445/121 227/444/121 193/476/121
f 213/477/122 227/478/122 230/474/122 216/473/122
f 188/392/123 214/396/123 212/479/123 251/480/123 253/481/123 252/482/123 250/483/123 236/484/123 235/485/123 247/486/123 249/487/123 248/488/123 246/489/123 234/490/123 233/491/123 243/492/123 245/493/123 244/494/123 242/495/123 232/496/123 218/497/123 219/22/123 189/21/123
f 232/498/24 237/499/24 222/500/24 218/501/24
f 246/502/124 259/503/124 239/504/124 234/505/124
f 235/506/88 240/507/88 258/508/88 247/509/88
f 190/106/125 224/105/125 222/510/125 237/511/125 255/512/125 257/513/125 256/514/125 254/515/125 238/516/125 239/517/125 259/518/125 261/519/125 260/520/125 258/521/125 240/522/125 241/523/125 263/524/125 265/525/125 264/526/125 262/527/125 228/528/125 229/445/125 191/343/125
f 263/529/126 250/530/126 252/531/126 265/532/126
f 184/342/127 194/475/127 192/533/127 270/534/127 285/535/127 287/536/127 286/537/127 284/538/127 269/539/127 268/540/127 281/541/127 283/542/127 282/543/127 280/544/127 267/545/127 266/546/127 277/547/127 279/548/127 278/549/127 276/550/127 198/551/127 199/127/127 185/20/127
f 280/552/128 293/553/128 272/554/128 267/555/128
f 186/125/129 204/124/129 202/556/129 289/557/129 291/558/129 290/559/129 288/560/129 271/561/129 272/562/129 293/563/129 295/564/129 294/565/129 292/566/129 273/567/129 274/568/129 297/569/129 299/570/129 298/571/129 296/572/129 275/573/129 208/574/129 209/393/129 187/347/129
f 270/575/130 275/576/130 296/577/130 285/578/130
f 290/579/131 279/580/131 277/581/131 288/582/131
f 291/583/18 278/584/18 279/580/18 290/579/18
f 289/585/132 276/586/132 278/587/132 291/588/132
f 294/589/131 283/590/131 281/591/131 292/592/131
f 295/593/18 282/594/18 283/590/18 294/589/18
f 293/553/132 280/552/132 282/595/132 295/596/132
f 298/597/131 287/598/131 285/599/131 296/600/131
f 299/601/18 286/602/18 287/598/18 298/597/18
f 317/603/4 304/604/4 28/605/4 300/102/4 11/101/4
f 28/606/4 29/607/4 301/608/4 300/609/4
f 178/610/4 177/611/4 302/612/4 303/613/4
f 326/614/4 178/610/4 303/613/4 322/615/4
f 316/616/133 318/617/133 328/618/133 326/619/133
f 309/620/4 179/621/4 306/622/4
f 151/623/134 2/624/134 363/5/134 367/121/134
f 310/625/4 308/626/4 307/627/4
f 334/628/8 349/629/8 345/630/8 333/631/8
f 28/632/8 304/633/8 179/634/8 309/635/8
f 327/59/8 305/380/8 307/383/8 329/60/8
f 340/636/135 343/637/135 344/638/135 339/639/135
f 316/616/133 29/640/133 306/641/133 318/617/133
f 179/621/4 320/131/4 318/134/4 306/622/4
f 316/642/4 326/614/4 322/615/4 312/643/4
f 332/644/136 307/645/136 342/646/136 351/647/136
f 29/607/4 316/642/4 312/643/4 301/608/4
f 304/633/8 317/62/8 319/61/8 179/634/8
f 8/41/4 311/71/4 315/27/4 39/26/4
f 12/68/22 313/88/22 314/72/22 13/40/22
f 13/40/16 314/72/16 311/71/16 8/41/16
f 168/648/137 175/649/137 26/31/137 19/30/137
f 178/98/133 326/619/133 328/618/133 308/99/133
f 2/624/1 151/623/1 150/650/1 153/651/1 152/652/1 3/653/1 4/654/1 1/655/1
f 157/356/4 189/21/4 325/28/4 321/70/4
f 161/367/22 162/357/22 324/69/22 323/87/22
f 162/357/16 157/356/16 321/70/16 324/69/16
f 307/627/4 308/626/4 328/133/4 330/132/4
f 338/656/4 335/657/4 401/658/4 340/659/4
f 341/660/4 336/661/4 350/662/4 352/663/4
f 333/631/8 345/630/8 348/664/8 331/665/8
f 338/656/4 347/666/4 346/667/4 335/657/4
f 350/662/4 336/661/4 335/657/4 346/667/4
f 334/628/8 332/668/8 351/669/8 349/629/8
f 331/670/138 179/671/138 337/672/138 348/673/138
f 336/661/4 341/660/4 343/674/4 402/675/4
f 307/676/139 330/677/139 344/678/139 342/679/139
f 350/680/140 346/681/140 345/682/140 349/683/140
f 338/684/141 340/685/141 339/686/141 337/687/141
f 342/679/142 344/678/142 343/688/142 341/689/142
f 346/681/143 347/690/143 348/691/143 345/682/143
f 330/677/133 320/692/133 339/693/133 344/678/133
f 352/694/140 350/680/140 349/683/140 351/695/140
f 347/690/144 338/696/144 337/697/144 348/691/144
f 351/695/145 342/698/145 341/699/145 352/694/145
f 320/700/146 179/701/146 337/687/146 339/686/146
f 173/702/147 174/703/147 358/704/147 360/705/147
f 359/706/26 355/707/26 354/708/26 356/709/26 353/710/26 357/711/26 360/712/26 358/713/26
f 167/714/148 173/702/148 360/705/148 357/715/148
f 167/716/133 357/717/133 353/718/133 18/719/133
f 23/720/149 25/721/149 354/722/149 355/723/149
f 25/721/150 24/75/150 356/78/150 354/722/150
f 174/703/151 172/370/151 359/373/151 358/704/151
f 4/654/152 3/653/152 362/2/152 361/1/152
f 2/624/153 1/655/153 364/6/153 363/5/153
f 3/653/154 152/652/154 366/19/154 362/2/154
f 67/205/133 217/462/133 223/461/133 73/206/133
f 1/655/155 4/654/155 361/1/155 364/6/155
f 152/652/156 153/651/156 365/341/156 366/19/156
f 150/650/157 151/623/157 367/121/157 368/344/157
f 153/651/158 150/650/158 368/344/158 365/341/158
f 380/724/4 377/725/4 385/726/4 388/727/4
f 373/728/4 375/729/4 383/730/4 381/731/4
f 372/732/4 370/733/4 394/734/4 396/735/4
f 405/736/10 369/737/10 370/738/10 406/739/10
f 276/586/128 289/585/128 202/740/128 198/741/128
f 297/742/132 284/743/132 286/744/132 299/745/132
f 284/743/128 297/742/128 274/746/128 269/747/128
f 268/748/130 273/749/130 292/750/130 281/751/130
f 273/752/18 268/753/18 269/754/18 274/755/18
f 242/756/124 255/757/124 237/499/124 232/498/124
f 265/532/24 252/531/24 253/758/24 264/759/24
f 264/759/159 253/758/159 251/760/159 262/761/159
f 259/503/126 246/502/126 248/762/126 261/763/126
f 261/763/24 248/762/24 249/764/24 260/765/24
f 260/765/159 249/764/159 247/766/159 258/767/159
f 255/757/126 242/756/126 244/768/126 257/769/126
f 257/769/24 244/768/24 245/770/24 256/771/24
f 256/771/159 245/770/159 243/772/159 254/773/159
f 238/774/24 233/775/24 234/505/24 239/504/24
f 212/776/88 228/777/88 262/778/88 251/779/88
f 226/464/160 220/463/160 221/780/160 225/781/160
f 225/781/161 221/780/161 218/501/161 222/500/161
f 203/782/162 197/783/162 200/784/162 206/785/162
f 240/786/24 235/787/24 236/788/24 241/789/24
f 321/70/4 325/28/4 315/27/4 311/71/4
f 401/658/4 402/675/4 343/674/4 340/659/4
f 250/530/124 263/529/124 241/789/124 236/788/124
f 266/790/130 271/791/130 288/792/130 277/793/130
f 48/198/72 52/197/72 139/326/72 126/325/72
f 149/340/76 136/339/76 134/794/76 147/795/76
f 119/796/72 124/797/72 147/795/72 134/794/72
f 131/328/74 142/327/74 123/798/74 118/799/74
f 124/797/30 119/796/30 118/800/30 123/801/30
f 82/802/68 87/803/68 105/804/68 92/805/68
f 114/806/23 103/807/23 102/270/23 115/269/23
f 112/808/163 101/809/163 103/807/163 114/806/163
f 111/810/70 98/811/70 96/812/70 109/813/70
f 110/814/23 99/815/23 98/811/23 111/810/23
f 108/249/163 97/248/163 99/815/163 110/814/163
f 107/816/70 94/817/70 92/818/70 105/819/70
f 106/820/23 95/821/23 94/817/23 107/816/23
f 104/148/163 93/147/163 95/821/163 106/820/163
f 89/822/23 84/823/23 83/150/23 88/149/23
f 101/809/32 112/808/32 78/214/32 62/213/32
f 75/824/164 71/825/164 70/826/164 76/827/164
f 72/241/165 68/240/165 71/825/165 75/824/165
f 56/202/166 50/201/166 47/828/166 53/829/166
f 197/783/8 203/782/8 53/829/8 47/828/8
f 86/830/68 91/831/68 113/832/68 100/833/68
f 127/318/74 138/317/74 121/834/74 116/835/74
f 376/836/10 375/837/10 380/838/10 379/839/10
f 387/840/10 388/841/10 385/842/10 386/843/10
f 382/844/10 381/845/10 383/846/10 384/847/10
f 379/848/167 380/849/167 388/850/167 387/851/167
f 377/401/168 378/404/168 386/852/168 385/853/168
f 375/854/169 376/855/169 384/856/169 383/857/169
f 376/858/1 374/859/1 382/860/1 384/861/1
f 374/862/170 373/863/170 381/864/170 382/865/170
f 378/866/1 379/867/1 387/868/1 386/869/1
f 392/870/1 390/871/1 398/872/1 400/873/1
f 371/874/133 372/875/133 396/876/133 395/877/133
f 370/878/8 369/879/8 393/880/8 394/881/8
f 389/882/10 390/883/10 394/884/10 393/885/10
f 392/886/10 391/887/10 395/888/10 396/889/10
f 390/890/10 392/891/10 396/892/10 394/893/10
f 391/894/10 389/895/10 393/896/10 395/897/10
f 398/898/10 397/899/10 399/900/10 400/901/10
f 390/902/171 389/903/171 397/904/171 398/905/171
f 389/906/4 391/907/4 399/908/4 397/909/4
f 391/887/172 392/886/172 400/910/172 399/911/172
f 336/661/173 404/912/173 403/913/173 335/657/173
f 11/914/4 10/915/4 159/916/4 160/917/4
f 401/918/174 335/919/174 403/920/174
f 402/921/175 401/922/175 403/923/175 404/924/175
f 402/921/176 404/924/176 336/925/176
f 327/926/4 317/603/4 11/101/4 160/385/4
f 213/927/10 405/736/10 406/739/10 227/928/10
f 207/424/177 377/929/177 380/930/177 375/931/177 373/932/177 371/933/177 395/897/177 393/896/177 369/934/177 405/935/177 213/936/177
f 372/937/10 371/938/10 373/939/10 374/940/10
f 177/941/4 305/942/4 327/926/4 160/385/4 302/384/4
f 379/943/10 378/944/10 193/413/10 227/945/10 406/946/10 370/947/10 372/948/10 374/949/10 376/950/10
